<svg id="Layer_1" data-name="Layer 1" xmlns="http://www.w3.org/2000/svg" viewBox="0 0 904.73 563.5"><defs><style>.cls-1{fill:none;stroke-width:13px;}.cls-1,.cls-3{stroke:#fff;stroke-miterlimit:10;}.cls-2,.cls-3{fill:#fff;}.cls-3{stroke-width:5px;}</style></defs><rect class="cls-1" x="6.5" y="6.5" width="315.23" height="550" rx="40.61"/><rect class="cls-2" x="91.74" y="6.5" width="144.74" height="17.77" rx="7.5"/><line class="cls-1" x1="6.5" y1="502.77" x2="321.73" y2="502.77"/><ellipse class="cls-2" cx="164.11" cy="525.77" rx="11.51" ry="11.5"/><rect class="cls-1" x="598.23" y="281.23" width="315" height="550" rx="40.61" transform="translate(1179.46 -356.23) rotate(90)"/><rect class="cls-2" x="949.52" y="547.35" width="144.64" height="17.77" rx="7.5" transform="translate(1445.57 -622.34) rotate(90)"/><line class="cls-1" x1="401.96" y1="242" x2="401.96" y2="557"/><circle class="cls-2" cx="378.96" cy="399.5" r="11.5"/><path class="cls-3" d="M694.94,345.41A217,217,0,0,0,480.73,163.23v10c101.1,0,187.81,73.93,204.2,173l-14.76,1.15,22.56,32.89,17.21-36Z" transform="translate(-132.5 -156.73)"/></svg>